# xmcd
#
# Track frame offsets:
#       150
#       16665
#       31675
#       40230
#       53817
#       68207
#       88452
#       97920
#       114605
#       131282
#       142190
#       159350
#
# Disc length: 2294 seconds
#
# Revision: 4
# Processed by: cddbd v1.5.2PL0 Copyright (c) Steve Scherf et al.
# Submitted via: FreeDbEdit v0.1
#
DISCID=9708f40c
DTITLE=Various Artist - A Country Christmas, Volume 2
DYEAR=1900
DGENRE=Christmas
TTITLE0=Dolly Parton - Medley: Winter Wonderland, Sleigh Ride
TTITLE1=Alabama - Happy Hollidays
TTITLE2=Charley Pride - Santa and the Kids
TTITLE3=Ronnie Milsap - Silver Bells
TTITLE4=Don Williams - O Come, All Ye Faithful
TTITLE5=Razzy Bailey - Peace on Earth (A Song for All Seasons)
TTITLE6=Floyd Cramer - Medley: Up on the Housetop, Jingle Bells
TTITLE7=K.T. Oslin - Blue Christmas
TTITLE8=Keith Whitley - A Christmas Letter
TTITLE9=The Judds - Away in a Manger
TTITLE10=Restless Heart - The Little Drummer Boy
TTITLE11=Steve Wariner - Noel, Noel
EXTD=
EXTT0=
EXTT1=
EXTT2=
EXTT3=
EXTT4=
EXTT5=
EXTT6=
EXTT7=
EXTT8=
EXTT9=
EXTT10=
EXTT11=
PLAYORDER=
